<svg width="100" height="100" viewBox="0 0 100 100" fill="none" xmlns="http://www.w3.org/2000/svg">
	<style>
		path {
			fill: #000;
		}
		rect {
			stroke: #000;
		}
		@media ( prefers-color-scheme: dark ) {
			path {
				fill: #fff;
			}
			rect {
				stroke: #fff;
			}
		}
	</style>
	<rect x="1.5" y="1.5" width="97" height="97" stroke="black" stroke-width="3"/>
	<path d="M11.1981 49.6028V47.7136H22.4552V49.6028H17.9169V62.259H15.7294V49.6028H11.1981ZM27.7855 62.4792C26.7628 62.4792 25.8702 62.2448 25.1079 61.7761C24.3456 61.3073 23.7538 60.6516 23.3324 59.8087C22.911 58.9659 22.7003 57.9811 22.7003 56.8542C22.7003 55.7226 22.911 54.733 23.3324 53.8855C23.7538 53.0379 24.3456 52.3798 25.1079 51.911C25.8702 51.4423 26.7628 51.2079 27.7855 51.2079C28.8082 51.2079 29.7007 51.4423 30.463 51.911C31.2254 52.3798 31.8172 53.0379 32.2386 53.8855C32.66 54.733 32.8707 55.7226 32.8707 56.8542C32.8707 57.9811 32.66 58.9659 32.2386 59.8087C31.8172 60.6516 31.2254 61.3073 30.463 61.7761C29.7007 62.2448 28.8082 62.4792 27.7855 62.4792ZM27.7926 60.6965C28.4555 60.6965 29.0047 60.5213 29.4403 60.171C29.8759 59.8206 30.1979 59.3542 30.4062 58.7718C30.6193 58.1894 30.7258 57.5479 30.7258 56.8471C30.7258 56.1511 30.6193 55.5119 30.4062 54.9295C30.1979 54.3424 29.8759 53.8712 29.4403 53.5161C29.0047 53.161 28.4555 52.9835 27.7926 52.9835C27.125 52.9835 26.571 53.161 26.1307 53.5161C25.695 53.8712 25.3707 54.3424 25.1576 54.9295C24.9493 55.5119 24.8451 56.1511 24.8451 56.8471C24.8451 57.5479 24.9493 58.1894 25.1576 58.7718C25.3707 59.3542 25.695 59.8206 26.1307 60.171C26.571 60.5213 27.125 60.6965 27.7926 60.6965ZM39.3249 62.4721C38.4442 62.4721 37.6582 62.2472 36.9669 61.7974C36.2804 61.3428 35.7406 60.6965 35.3476 59.8585C34.9594 59.0157 34.7652 58.0048 34.7652 56.8258C34.7652 55.6468 34.9617 54.6383 35.3547 53.8002C35.7525 52.9622 36.297 52.3206 36.9883 51.8755C37.6795 51.4304 38.4632 51.2079 39.3391 51.2079C40.0162 51.2079 40.5607 51.3215 40.9726 51.5488C41.3893 51.7713 41.7113 52.0318 41.9385 52.3301C42.1705 52.6284 42.3505 52.8911 42.4783 53.1184H42.6062V47.7136H44.7297V62.259H42.6559V60.5616H42.4783C42.3505 60.7936 42.1658 61.0587 41.9243 61.357C41.6876 61.6553 41.3609 61.9158 40.9442 62.1383C40.5276 62.3608 39.9878 62.4721 39.3249 62.4721ZM39.7937 60.661C40.4044 60.661 40.9205 60.5 41.3419 60.1781C41.7681 59.8514 42.0901 59.3992 42.3079 58.8215C42.5304 58.2439 42.6417 57.5715 42.6417 56.8045C42.6417 56.0469 42.5328 55.384 42.315 54.8159C42.0972 54.2477 41.7776 53.805 41.3562 53.4877C40.9348 53.1705 40.4139 53.0119 39.7937 53.0119C39.1544 53.0119 38.6218 53.1776 38.1956 53.509C37.7695 53.8405 37.4475 54.2927 37.2297 54.8656C37.0167 55.4385 36.9101 56.0848 36.9101 56.8045C36.9101 57.5337 37.019 58.1894 37.2368 58.7718C37.4546 59.3542 37.7766 59.8159 38.2027 60.1568C38.6336 60.4929 39.1639 60.661 39.7937 60.661ZM52.3558 62.4792C51.3331 62.4792 50.4406 62.2448 49.6782 61.7761C48.9159 61.3073 48.3241 60.6516 47.9027 59.8087C47.4813 58.9659 47.2706 57.9811 47.2706 56.8542C47.2706 55.7226 47.4813 54.733 47.9027 53.8855C48.3241 53.0379 48.9159 52.3798 49.6782 51.911C50.4406 51.4423 51.3331 51.2079 52.3558 51.2079C53.3785 51.2079 54.271 51.4423 55.0334 51.911C55.7957 52.3798 56.3875 53.0379 56.8089 53.8855C57.2303 54.733 57.441 55.7226 57.441 56.8542C57.441 57.9811 57.2303 58.9659 56.8089 59.8087C56.3875 60.6516 55.7957 61.3073 55.0334 61.7761C54.271 62.2448 53.3785 62.4792 52.3558 62.4792ZM52.3629 60.6965C53.0258 60.6965 53.575 60.5213 54.0106 60.171C54.4462 59.8206 54.7682 59.3542 54.9765 58.7718C55.1896 58.1894 55.2961 57.5479 55.2961 56.8471C55.2961 56.1511 55.1896 55.5119 54.9765 54.9295C54.7682 54.3424 54.4462 53.8712 54.0106 53.5161C53.575 53.161 53.0258 52.9835 52.3629 52.9835C51.6953 52.9835 51.1413 53.161 50.701 53.5161C50.2654 53.8712 49.941 54.3424 49.728 54.9295C49.5196 55.5119 49.4155 56.1511 49.4155 56.8471C49.4155 57.5479 49.5196 58.1894 49.728 58.7718C49.941 59.3542 50.2654 59.8206 50.701 60.171C51.1413 60.5213 51.6953 60.6965 52.3629 60.6965ZM11.9155 86.259V71.7136H14.1101V84.3698H20.701V86.259H11.9155ZM23.0341 86.259V75.3499H25.1576V86.259H23.0341ZM24.1065 73.6667C23.7372 73.6667 23.42 73.5436 23.1548 73.2974C22.8944 73.0464 22.7642 72.7481 22.7642 72.4025C22.7642 72.0521 22.8944 71.7538 23.1548 71.5076C23.42 71.2567 23.7372 71.1312 24.1065 71.1312C24.4758 71.1312 24.7907 71.2567 25.0511 71.5076C25.3163 71.7538 25.4488 72.0521 25.4488 72.4025C25.4488 72.7481 25.3163 73.0464 25.0511 73.2974C24.7907 73.5436 24.4758 73.6667 24.1065 73.6667ZM30.1381 79.7818V86.259H28.0145V75.3499H30.0529V77.1255H30.1878C30.4388 76.5479 30.8318 76.0838 31.3668 75.7335C31.9066 75.3831 32.586 75.2079 33.4052 75.2079C34.1485 75.2079 34.7996 75.3641 35.3583 75.6766C35.917 75.9844 36.3502 76.4437 36.658 77.0545C36.9658 77.6653 37.1196 78.4205 37.1196 79.3201V86.259H34.9961V79.5758C34.9961 78.7851 34.7901 78.1672 34.3782 77.7221C33.9662 77.2723 33.4004 77.0474 32.6807 77.0474C32.1883 77.0474 31.7503 77.1539 31.3668 77.367C30.988 77.5801 30.6874 77.8926 30.4648 78.3045C30.247 78.7117 30.1381 79.2041 30.1381 79.7818ZM41.9208 82.5587L41.9066 79.9664H42.2759L46.6225 75.3499H49.1651L44.2077 80.6056H43.8739L41.9208 82.5587ZM39.9677 86.259V71.7136H42.0912V86.259H39.9677ZM46.8569 86.259L42.9506 81.0744L44.4137 79.59L49.4634 86.259H46.8569Z" fill="black"/>
</svg>
